<?xml version="1.0" encoding="utf-8"?>
<!-- Generator: Adobe Illustrator 17.0.0, SVG Export Plug-In . SVG Version: 6.00 Build 0)  -->
<!DOCTYPE svg PUBLIC "-//W3C//DTD SVG 1.1//EN" "http://www.w3.org/Graphics/SVG/1.1/DTD/svg11.dtd">
<svg version="1.1" id="Layer_1" xmlns="http://www.w3.org/2000/svg" xmlns:xlink="http://www.w3.org/1999/xlink" x="0px" y="0px"
	 width="24px" height="24px" viewBox="0 0 24 24" enable-background="new 0 0 24 24" xml:space="preserve">
<path fill="#FFFFFF" d="M6.043,17.496L4.56,19.001C1.77,16.8,0,13.588,0,10s1.77-6.8,4.561-9l1.483,1.504
	C3.717,4.339,2.239,7.016,2.239,10S3.717,15.661,6.043,17.496z M15,10c0-1.657-1.344-3-3-3s-3,1.343-3,3
	c0,1.304,0.838,2.403,2,2.816V23h2V12.816C14.162,12.403,15,11.304,15,10z M6.718,10c0-1.791,0.887-3.398,2.282-4.498L7.519,4
	c-1.86,1.467-3.04,3.608-3.04,6s1.18,4.533,3.04,6L9,14.498C7.604,13.398,6.718,11.791,6.718,10z M19.44,1l-1.483,1.504
	c2.326,1.835,3.804,4.512,3.804,7.496s-1.478,5.661-3.804,7.496l1.483,1.505C22.23,16.8,24,13.588,24,10S22.23,3.2,19.44,1z
	 M16.481,4L15,5.502c1.396,1.101,2.282,2.707,2.282,4.498S16.396,13.398,15,14.498L16.481,16c1.86-1.467,3.04-3.608,3.04-6
	S18.342,5.467,16.481,4z"/>
</svg>
