<?xml version="1.0" encoding="utf-8"?>
<!-- Generator: Adobe Illustrator 17.0.0, SVG Export Plug-In . SVG Version: 6.00 Build 0)  -->
<!DOCTYPE svg PUBLIC "-//W3C//DTD SVG 1.1//EN" "http://www.w3.org/Graphics/SVG/1.1/DTD/svg11.dtd">
<svg version="1.1" id="Layer_1" xmlns="http://www.w3.org/2000/svg" xmlns:xlink="http://www.w3.org/1999/xlink" x="0px" y="0px"
	 width="24px" height="24px" viewBox="0 0 24 24" enable-background="new 0 0 24 24" xml:space="preserve">
<path fill="#FFFFFF" d="M12,0C5.373,0,0,5.373,0,12s5.373,12,12,12s12-5.373,12-12S18.627,0,12,0z M5.583,14.583
	C5.229,14.265,5,13.793,5,13.26c0-0.532,0.229-1.003,0.583-1.323V14.583z M6.75,15c-0.212,0-0.323,0.003-0.583-0.08v-3.318
	c0.276-0.088,0.407-0.085,0.583-0.071V15z M7.917,15H7.333v-3.305l0.18,0.105c0.08-0.328,0.222-0.628,0.404-0.895
	C7.917,10.905,7.917,15,7.917,15z M9.083,15H8.5v-4.706c0.18-0.134,0.373-0.25,0.583-0.33V15z M10.25,15H9.667V9.833
	c0.22-0.023,0.286-0.04,0.583,0.005V15z M11.417,15h-0.584v-4.987l0.222,0.107c0.104-0.181,0.228-0.346,0.362-0.5
	C11.417,9.62,11.417,15,11.417,15z M17.302,15H12V9.096c0.465-0.32,1.016-0.512,1.611-0.512c1.583,0,2.866,1.307,2.984,2.962
	c1.14-0.558,2.405,0.34,2.405,1.642C19,14.188,18.239,15,17.302,15z"/>
</svg>
