<?xml version="1.0" encoding="utf-8"?>
<!-- Generator: Adobe Illustrator 17.0.0, SVG Export Plug-In . SVG Version: 6.00 Build 0)  -->
<!DOCTYPE svg PUBLIC "-//W3C//DTD SVG 1.1//EN" "http://www.w3.org/Graphics/SVG/1.1/DTD/svg11.dtd">
<svg version="1.1" id="Layer_1" xmlns="http://www.w3.org/2000/svg" xmlns:xlink="http://www.w3.org/1999/xlink" x="0px" y="0px"
	 width="299px" height="78px" viewBox="0 0 299 78" enable-background="new 0 0 299 78" xml:space="preserve">
<path fill="#FFFFFF" d="M45.421,3.877h15.862v72.1H45.421V47.033H16.169v28.943H0.306v-72.1h15.862v28.531h29.252V3.877z
	 M116.027,38.433c1.063,3.605,1.596,7.365,1.596,11.279c0,0.617-0.018,1.271-0.051,1.957c-0.036,0.687-0.087,1.408-0.155,2.163
	H78.998c0.755,3.57,2.317,6.267,4.687,8.085c2.369,1.82,5.305,2.729,8.807,2.729c2.609,0,4.944-0.445,7.004-1.339
	c2.06-0.892,4.188-2.334,6.386-4.326l8.961,7.931c-2.61,3.229-5.768,5.752-9.476,7.571c-3.708,1.818-8.069,2.729-13.081,2.729
	c-4.12,0-7.949-0.688-11.484-2.061c-3.538-1.373-6.592-3.329-9.167-5.871c-2.575-2.539-4.583-5.544-6.026-9.012
	c-1.442-3.467-2.163-7.329-2.163-11.588v-0.206c0-3.914,0.669-7.622,2.008-11.124s3.209-6.557,5.614-9.167
	c2.402-2.609,5.269-4.669,8.6-6.18c3.33-1.509,7.02-2.266,11.073-2.266c4.6,0,8.583,0.824,11.948,2.472
	c3.364,1.648,6.163,3.863,8.395,6.644C113.313,31.635,114.961,34.828,116.027,38.433z M102.379,44.047
	c-0.481-3.502-1.717-6.335-3.708-8.498c-1.992-2.163-4.635-3.244-7.931-3.244s-5.958,1.065-7.982,3.193
	c-2.026,2.129-3.348,4.979-3.966,8.549H102.379z M157.072,47.961c-1.581-1.236-3.365-2.282-5.356-3.142
	c-1.992-0.858-3.949-1.597-5.871-2.215c-1.511-0.479-2.936-0.961-4.274-1.442c-1.339-0.479-2.523-0.979-3.553-1.493
	c-1.03-0.515-1.854-1.063-2.472-1.647c-0.618-0.583-0.927-1.252-0.927-2.009v-0.206c0-1.098,0.48-2.009,1.442-2.729
	c0.96-0.721,2.403-1.082,4.326-1.082c1.991,0,4.291,0.463,6.901,1.391c2.608,0.927,5.286,2.181,8.034,3.759l5.974-10.815
	c-3.022-1.991-6.335-3.554-9.939-4.687c-3.605-1.133-7.158-1.7-10.661-1.7c-2.816,0-5.443,0.378-7.879,1.133
	c-2.438,0.756-4.567,1.889-6.386,3.399c-1.82,1.511-3.262,3.348-4.326,5.511c-1.065,2.163-1.597,4.652-1.597,7.467v0.207
	c0,2.678,0.497,4.943,1.494,6.798c0.995,1.854,2.282,3.416,3.862,4.687c1.579,1.271,3.348,2.301,5.305,3.09
	c1.957,0.79,3.896,1.459,5.819,2.008c1.51,0.481,2.952,0.928,4.326,1.34c1.373,0.411,2.592,0.841,3.657,1.287
	c1.063,0.447,1.905,0.979,2.523,1.597s0.927,1.339,0.927,2.163v0.206c0,1.235-0.533,2.231-1.597,2.986
	c-1.065,0.757-2.729,1.133-4.995,1.133c-2.611,0-5.408-0.548-8.395-1.647c-2.987-1.098-5.992-2.746-9.013-4.944l-6.695,10.3
	c3.708,2.885,7.604,4.996,11.69,6.335c4.084,1.339,8.085,2.009,12,2.009c2.951,0,5.717-0.36,8.291-1.082
	c2.575-0.721,4.823-1.802,6.747-3.244c1.921-1.442,3.415-3.278,4.48-5.511c1.063-2.23,1.597-4.893,1.597-7.982v-0.206
	c0-2.539-0.516-4.702-1.545-6.489C159.955,50.708,158.65,49.197,157.072,47.961z M216.45,38.433
	c1.064,3.605,1.597,7.365,1.597,11.279c0,0.617-0.018,1.271-0.052,1.957c-0.035,0.687-0.087,1.408-0.154,2.163h-38.419
	c0.755,3.57,2.317,6.267,4.687,8.085c2.369,1.82,5.305,2.729,8.807,2.729c2.608,0,4.944-0.445,7.004-1.339
	c2.06-0.892,4.188-2.334,6.386-4.326l8.961,7.931c-2.61,3.229-5.768,5.752-9.476,7.571c-3.708,1.818-8.069,2.729-13.081,2.729
	c-4.12,0-7.948-0.688-11.484-2.061c-3.537-1.373-6.592-3.329-9.167-5.871c-2.575-2.539-4.584-5.544-6.025-9.012
	c-1.442-3.467-2.163-7.329-2.163-11.588v-0.206c0-3.914,0.669-7.622,2.009-11.124c1.339-3.502,3.209-6.557,5.613-9.167
	c2.402-2.609,5.269-4.669,8.601-6.18c3.329-1.509,7.02-2.266,11.072-2.266c4.6,0,8.583,0.824,11.948,2.472
	c3.363,1.648,6.162,3.863,8.395,6.644C213.738,31.635,215.385,34.828,216.45,38.433z M202.803,44.047
	c-0.481-3.502-1.717-6.335-3.708-8.498c-1.992-2.163-4.635-3.244-7.931-3.244s-5.958,1.065-7.982,3.193
	c-2.026,2.129-3.348,4.979-3.966,8.549H202.803z M262.336,0.787h15.656v75.19h-15.656v-7.931c-1.924,2.61-4.241,4.755-6.953,6.438
	c-2.713,1.682-6.128,2.523-10.248,2.523c-3.229,0-6.353-0.618-9.373-1.854c-3.022-1.235-5.7-3.072-8.034-5.511
	c-2.335-2.437-4.207-5.423-5.613-8.961c-1.408-3.535-2.111-7.604-2.111-12.205V48.27c0-4.6,0.703-8.668,2.111-12.206
	c1.406-3.536,3.261-6.522,5.562-8.961c2.3-2.437,4.961-4.274,7.983-5.51c3.021-1.236,6.18-1.854,9.476-1.854
	c4.188,0,7.638,0.824,10.352,2.472c2.712,1.648,4.995,3.571,6.85,5.768V0.787z M262.542,48.27c0-2.266-0.36-4.342-1.082-6.231
	c-0.721-1.888-1.684-3.502-2.884-4.841c-1.202-1.339-2.61-2.369-4.223-3.09c-1.614-0.721-3.348-1.082-5.202-1.082
	c-1.854,0-3.589,0.361-5.201,1.082c-1.614,0.721-3.038,1.751-4.274,3.09c-1.236,1.339-2.215,2.936-2.936,4.789
	c-0.721,1.854-1.081,3.949-1.081,6.283v0.206c0,2.266,0.36,4.344,1.081,6.231c0.721,1.89,1.699,3.502,2.936,4.841
	s2.66,2.369,4.274,3.09c1.612,0.722,3.348,1.082,5.201,1.082c1.854,0,3.588-0.36,5.202-1.082c1.612-0.721,3.021-1.751,4.223-3.09
	c1.2-1.339,2.163-2.951,2.884-4.841c0.722-1.888,1.082-3.966,1.082-6.231V48.27z M282.111,59.496v16.48h16.583v-16.48H282.111z"/>
</svg>
